<svg width="28" height="28" viewBox="0 0 28 28" fill="none" xmlns="http://www.w3.org/2000/svg">
<rect width="28" height="28" rx="6" fill="#11FCD4"/>
<path fill-rule="evenodd" clip-rule="evenodd" d="M22.8594 13.6991C22.8594 13.1094 22.1811 12.7776 21.7156 13.1397L18.1776 15.8915C17.8411 16.1532 17.8101 16.6506 18.1115 16.9521L21.6495 20.4901C22.096 20.9366 22.8594 20.6204 22.8594 19.9889V13.6991Z" fill="black"/>
<path fill-rule="evenodd" clip-rule="evenodd" d="M9.88854 16.9521C10.19 16.6506 10.159 16.1532 9.82251 15.8915L6.28451 13.1397C5.81896 12.7776 5.14062 13.1094 5.14062 13.6991V19.9889C5.14062 20.6204 5.90405 20.9366 6.35054 20.4901L9.88854 16.9521Z" fill="black"/>
<path fill-rule="evenodd" clip-rule="evenodd" d="M14.4398 13.0084C14.182 13.2125 13.8177 13.2125 13.56 13.0084L6.28927 7.25301C5.82463 6.88521 5.14062 7.21613 5.14062 7.80872V10.2098C5.14062 10.4264 5.23966 10.6311 5.40948 10.7655L13.56 17.2174C13.8177 17.4215 14.182 17.4215 14.4398 17.2174L16.6587 15.461L22.5905 10.7655C22.7603 10.6311 22.8594 10.4264 22.8594 10.2098V7.80869C22.8594 7.2161 22.1754 6.88518 21.7107 7.25298L14.4398 13.0084Z" fill="black"/>
</svg>
