<svg xmlns="http://www.w3.org/2000/svg"
 width="144" height="144" viewBox="0 0 144.000000 144.000000"
 preserveAspectRatio="xMidYMid meet" fill="none">
  <rect x="20" y="20" width="104" height="104" fill="#ffffff"></rect>

  <g transform="translate(0.000000,144.000000) scale(0.100000,-0.100000)"
  fill="#000000" stroke="none">
    <path d="M210 1431 c-84 -26 -139 -73 -183 -155 -22 -40 -22 -48 -25 -535 -3
    -577 -4 -570 81 -655 87 -87 81 -86 636 -86 557 0 552 -1 635 83 87 87 86 82
    86 636 0 530 -1 544 -64 617 -18 22 -58 53 -87 69 l-54 30 -500 2 c-275 1
    -511 -2 -525 -6z m365 -426 l0 -140 -140 0 -140 0 -3 129 c-1 72 0 136 2 143
    4 11 36 13 143 11 l138 -3 0 -140z m570 0 l0 -140 -140 0 -140 0 -3 129 c-1
    72 0 136 2 143 4 11 36 13 143 11 l138 -3 0 -140z m-285 -285 l0 -140 -140 0
    -140 0 0 140 0 140 140 0 140 0 0 -140z m-285 -285 l0 -140 -140 0 -140 0 -3
    129 c-1 72 0 136 2 143 4 11 36 13 143 11 l138 -3 0 -140z m570 0 l0 -140
    -140 0 -140 0 -3 129 c-1 72 0 136 2 143 4 11 36 13 143 11 l138 -3 0 -140z"/>
  </g>
</svg>
