<svg xmlns="http://www.w3.org/2000/svg" width="24" height="24" viewBox="0 0 24 24" fill="none">
  <path d="M23 12C23 18.0748 18.0748 23 12 23C5.92521 23 1 18.0748 1 12C1 5.92521 5.92521 1 12 1C18.0761 1 23 5.92521 23 12Z" fill="#2081E2"/>
  <path fill-rule="evenodd" clip-rule="evenodd" d="M19.6999 13.8368V13.1343C19.6999 13.0693 19.6332 13.0223 19.5676 13.0402L16.0391 13.9992C16.0201 14.0037 16.0033 14.0138 15.9902 14.0272C15.6123 14.4197 15.2912 14.6831 15.2061 14.7529L15.2002 14.7577C14.9809 14.9325 14.7092 15.0277 14.4232 15.0277H13.1457V13.8032H14.161C14.1873 13.8032 14.2123 13.7942 14.2314 13.7785L14.3624 13.6654C14.4184 13.6172 14.4852 13.5589 14.565 13.4839C14.5718 13.4775 14.5787 13.471 14.5856 13.4645C14.6276 13.4252 14.6724 13.3832 14.7163 13.3371C14.7688 13.2889 14.82 13.2351 14.8677 13.1825C14.9475 13.1018 15.0238 13.0178 15.1037 12.9293C15.1609 12.871 15.2133 12.8049 15.2645 12.7388C15.3217 12.6761 15.3777 12.6055 15.4302 12.5383C15.4497 12.5113 15.4705 12.4841 15.4917 12.4562C15.5119 12.4297 15.5325 12.4026 15.5529 12.3747C15.591 12.3209 15.6292 12.2638 15.6613 12.21C15.7614 12.0644 15.8461 11.9086 15.9176 11.7529C15.9504 11.6862 15.9766 11.616 16.0021 11.5477C16.0053 11.5391 16.0085 11.5306 16.0117 11.5221C16.0403 11.4425 16.0641 11.3675 16.082 11.2879C16.1249 11.1008 16.1344 10.9149 16.1154 10.7289C16.1106 10.6706 16.1058 10.6135 16.0915 10.5597V10.5507C16.0868 10.5126 16.0772 10.4701 16.0641 10.4309C16.0212 10.2494 15.9545 10.0679 15.8699 9.88971C15.8413 9.82361 15.8079 9.75639 15.7758 9.69478C15.6995 9.56146 15.6196 9.42811 15.5291 9.29928C15.5109 9.27207 15.4908 9.2445 15.4708 9.21698C15.4553 9.19578 15.4399 9.1746 15.4254 9.15364C15.3681 9.07047 15.3036 8.99029 15.241 8.91249C15.2269 8.89491 15.2128 8.87745 15.199 8.8601C15.162 8.8145 15.1216 8.76891 15.0809 8.72301C15.0586 8.69785 15.0362 8.67261 15.0143 8.64722C14.9523 8.57664 14.8915 8.50942 14.8296 8.44332C14.6079 8.20804 14.3756 7.99517 14.1682 7.81367C14.1301 7.77782 14.0883 7.74196 14.0455 7.70724C13.8846 7.56943 13.738 7.44954 13.6153 7.35656C13.5784 7.32989 13.5453 7.30361 13.5145 7.27914C13.4936 7.26251 13.4737 7.24671 13.4544 7.23221C13.4172 7.20613 13.3849 7.18301 13.3578 7.1636C13.3406 7.1513 13.3255 7.14049 13.3126 7.13136C13.303 7.12464 13.2923 7.12017 13.2816 7.11679L13.1457 7.08096V6.02332C13.1457 5.85078 13.0718 5.69617 12.9539 5.583C12.8359 5.46985 12.6715 5.40039 12.4903 5.40039C12.1281 5.40039 11.8349 5.67936 11.8349 6.02332V6.73586L11.767 6.71796L11.5823 6.66864L11.4142 6.62496C11.4138 6.62496 11.4133 6.62476 11.4127 6.62454C11.4119 6.62421 11.4109 6.62383 11.4095 6.62383H11.4059L10.1308 6.29893C10.0748 6.28436 10.0271 6.3415 10.0557 6.38968L10.2595 6.74371C10.2711 6.77092 10.2857 6.79813 10.3008 6.8261C10.3106 6.84419 10.3205 6.8626 10.3298 6.88153C10.3632 6.94425 10.3966 7.01036 10.4287 7.07646C10.4573 7.13472 10.4859 7.19186 10.5193 7.2546C10.5333 7.2841 10.5476 7.31395 10.5621 7.34423C10.6154 7.45543 10.6714 7.57235 10.7266 7.69828L10.7266 7.69829C10.7743 7.80472 10.822 7.91114 10.8637 8.02206C10.9781 8.30103 11.0865 8.59904 11.1807 8.90492C11.2041 8.97338 11.2228 9.03962 11.2418 9.10676C11.2499 9.13522 11.258 9.16383 11.2665 9.19285L11.2796 9.24661C11.3177 9.38892 11.3511 9.53007 11.3749 9.67236C11.394 9.76983 11.4119 9.86282 11.4214 9.95693C11.4357 10.0634 11.45 10.1698 11.4548 10.2762C11.4643 10.3737 11.4691 10.4757 11.4691 10.5731C11.4691 10.8219 11.4452 11.0616 11.3892 11.2879C11.3857 11.3001 11.3822 11.3124 11.3787 11.3248C11.363 11.3799 11.3467 11.437 11.3273 11.4919C11.3097 11.5506 11.2868 11.6093 11.2632 11.6704C11.2548 11.6919 11.2463 11.7138 11.2379 11.7361C11.2363 11.74 11.2347 11.744 11.2332 11.748C11.2156 11.7924 11.1978 11.8375 11.1759 11.8817C11.0579 12.1484 10.9114 12.4139 10.76 12.6626C10.5384 13.0312 10.3155 13.355 10.1594 13.5634C10.1499 13.5769 10.1405 13.5897 10.1316 13.602C10.1204 13.6174 10.1098 13.632 10.0998 13.6463C10.051 13.7113 10.101 13.8032 10.1856 13.8032H11.8349V15.0277H10.1666C9.7185 15.0277 9.3038 14.7891 9.1036 14.407C8.99993 14.2155 8.95941 14.0048 8.98325 13.7987C8.98919 13.7371 8.94034 13.6788 8.87362 13.6788H5.50357C5.44637 13.6788 5.3999 13.7225 5.3999 13.7763V13.8413C5.3999 15.8624 7.13617 17.5004 9.27877 17.5004H15.3241C16.4573 17.5004 17.1008 16.5295 17.7332 15.5753C17.9095 15.3093 18.085 15.0446 18.2699 14.8025C18.6024 14.3678 19.402 14.0228 19.6356 13.9286C19.6737 13.913 19.6999 13.8771 19.6999 13.8368ZM6.55413 11.7911L6.51338 11.8603C6.47746 11.92 6.51725 11.9996 6.58519 11.9996H9.1126C9.14075 11.9996 9.16695 11.9849 9.18248 11.9598C9.21549 11.9053 9.24655 11.8488 9.27469 11.7911C9.49308 11.3951 9.6872 10.9667 9.75805 10.6503C9.92401 9.88137 9.56975 8.64625 9.15919 7.65313C9.13202 7.58714 9.04758 7.58086 9.01166 7.64161L6.55413 11.7911Z" fill="#E7F3FF"/>
</svg>