<svg width="128" height="128" fill="none" xmlns="http://www.w3.org/2000/svg"><circle cx="64" cy="64" r="64" fill="#F8F8F8"/><g filter="url(#a)"><path d="M16 38.64h94.852v58.356a4 4 0 0 1-4 4H20a4 4 0 0 1-4-4V38.64Z" fill="#FBFBFB"/></g><path d="M16 34.735a4 4 0 0 1 4-4h86.852a4 4 0 0 1 4 4v3.905H16v-3.905Z" fill="#E9E9E9"/><circle opacity=".2" cx="31.41" cy="34.688" r="1.317" fill="#CCC"/><circle opacity=".3" cx="26.8" cy="34.688" r="1.317" fill="#CCC"/><circle opacity=".3" cx="22.189" cy="34.688" r="1.317" fill="#CCC"/><rect width="36.504" height="6.603" rx="3.302" transform="scale(1.00408 .9959) rotate(45 -59.842 140.399)" fill="#C4C4C4"/><rect width="25.178" height="8.254" rx="2" transform="scale(1.00408 .9959) rotate(45 -63.344 151.67)" fill="#E1E1E1"/><path d="M92 60.5C92 77.897 77.673 92 60 92c-17.673 0-32-14.103-32-31.5S42.327 29 60 29c17.673 0 32 14.103 32 31.5Z" fill="#fff"/><path fill-rule="evenodd" clip-rule="evenodd" d="M100 60.5c0 21.934-18.028 39.5-40 39.5S20 82.434 20 60.5 38.028 21 60 21s40 17.566 40 39.5ZM60 92c17.673 0 32-14.103 32-31.5S77.673 29 60 29c-17.673 0-32 14.103-32 31.5S42.327 92 60 92Z" fill="#E1E1E1"/><path d="M42.07 72v-3.57H32.5v-3.375L39.415 50.4h4.125l-6.915 14.655h5.445V59.43h3.66v5.625h2.025v3.375H45.73V72h-3.66ZM59.122 72.45c-1.53 0-2.88-.325-4.05-.975a7.1 7.1 0 0 1-2.745-2.745c-.65-1.17-.975-2.52-.975-4.05v-6.96c0-1.53.325-2.88.975-4.05a6.996 6.996 0 0 1 2.745-2.73c1.17-.66 2.52-.99 4.05-.99 1.53 0 2.875.33 4.035.99a6.996 6.996 0 0 1 2.745 2.73c.66 1.17.99 2.52.99 4.05v6.96c0 1.53-.33 2.88-.99 4.05a7.1 7.1 0 0 1-2.745 2.745c-1.16.65-2.505.975-4.035.975Zm0-3.435c.76 0 1.45-.18 2.07-.54a4.14 4.14 0 0 0 1.47-1.47c.36-.62.54-1.31.54-2.07V57.45c0-.77-.18-1.46-.54-2.07-.36-.62-.85-1.11-1.47-1.47a3.962 3.962 0 0 0-2.07-.555c-.76 0-1.45.185-2.07.555-.62.36-1.11.85-1.47 1.47-.36.61-.54 1.3-.54 2.07v7.485c0 .76.18 1.45.54 2.07.36.61.85 1.1 1.47 1.47.62.36 1.31.54 2.07.54ZM80.068 72v-3.57h-9.57v-3.375L77.413 50.4h4.125l-6.915 14.655h5.445V59.43h3.66v5.625h2.025v3.375h-2.025V72h-3.66Z" fill="#C4C4C4"/><defs><filter id="a" x="8" y="34.64" width="110.853" height="78.356" filterUnits="userSpaceOnUse" color-interpolation-filters="sRGB"><feFlood flood-opacity="0" result="BackgroundImageFix"/><feColorMatrix in="SourceAlpha" values="0 0 0 0 0 0 0 0 0 0 0 0 0 0 0 0 0 0 127 0" result="hardAlpha"/><feOffset dy="4"/><feGaussianBlur stdDeviation="4"/><feComposite in2="hardAlpha" operator="out"/><feColorMatrix values="0 0 0 0 0.643137 0 0 0 0 0.678431 0 0 0 0 0.745098 0 0 0 0.2 0"/><feBlend in2="BackgroundImageFix" result="effect1_dropShadow_1251_5517"/><feBlend in="SourceGraphic" in2="effect1_dropShadow_1251_5517" result="shape"/></filter></defs></svg>