<svg width="128" height="128" fill="none" xmlns="http://www.w3.org/2000/svg"><circle cx="64" cy="64" r="64" fill="#F8F8F8"/><g filter="url(#a)"><path d="M16 38.64h94.852v58.356a4 4 0 0 1-4 4H20a4 4 0 0 1-4-4V38.64Z" fill="#FBFBFB"/></g><path fill-rule="evenodd" clip-rule="evenodd" d="M53.935 59.293 50.642 56l-6.02 6.021-5.822-5.822-3.293 3.294 5.821 5.821L35 71.642l3.293 3.293 6.328-6.328 6.528 6.528 3.293-3.293-6.528-6.528 6.021-6.02ZM91.935 59.293 88.642 56l-6.02 6.021-5.822-5.822-3.293 3.294 5.821 5.821L73 71.642l3.293 3.293 6.328-6.328 6.528 6.528 3.293-3.293-6.528-6.528 6.021-6.02Z" fill="#C4C4C4"/><path d="M16 34.735a4 4 0 0 1 4-4h86.852a4 4 0 0 1 4 4v3.905H16v-3.905Z" fill="#E1E1E1"/><circle cx="31.41" cy="34.688" r="1.317" fill="#F1F1F1"/><circle cx="26.8" cy="34.688" r="1.317" fill="#F1F1F1"/><circle cx="22.189" cy="34.688" r="1.317" fill="#F1F1F1"/><defs><filter id="a" x="8" y="34.64" width="110.853" height="78.356" filterUnits="userSpaceOnUse" color-interpolation-filters="sRGB"><feFlood flood-opacity="0" result="BackgroundImageFix"/><feColorMatrix in="SourceAlpha" values="0 0 0 0 0 0 0 0 0 0 0 0 0 0 0 0 0 0 127 0" result="hardAlpha"/><feOffset dy="4"/><feGaussianBlur stdDeviation="4"/><feComposite in2="hardAlpha" operator="out"/><feColorMatrix values="0 0 0 0 0.643137 0 0 0 0 0.678431 0 0 0 0 0.745098 0 0 0 0.2 0"/><feBlend in2="BackgroundImageFix" result="effect1_dropShadow_1251_5521"/><feBlend in="SourceGraphic" in2="effect1_dropShadow_1251_5521" result="shape"/></filter></defs></svg>