<svg width="128" height="128" fill="none" xmlns="http://www.w3.org/2000/svg"><circle cx="64" cy="64" r="64" fill="#F8F8F8"/><path fill-rule="evenodd" clip-rule="evenodd" d="M92.45 31h10.31v2.242h-.001.001l-7.064 7.172h6.615v2.242H92v-2.242l7.324-7.172H92.45V31ZM80.606 7.75h13.932v3.028l-9.544 9.693h8.939V23.5H80v-3.029l9.895-9.692h-9.29V7.75Z" fill="#C4C4C4"/><circle cx="63.5" cy="96.5" r="7.5" fill="#E1E1E1"/><g filter="url(#a)"><path fill-rule="evenodd" clip-rule="evenodd" d="M67.836 23.275a5 5 0 1 0-9.637.125c-15.51 2.464-18.86 15.983-18.86 21.416 0 5.738 0 12.296-4.15 25.821C32.105 80.684 23.566 89.628 19 94c11.182 0 29.383-.172 46.927-.337 16.32-.154 32.07-.303 41.073-.303-9.547-6.148-17.85-26.821-18.68-43.626-.714-14.47-7.277-24.686-20.484-26.46Z" fill="#fff"/></g><defs><filter id="a" x="11" y="13" width="104" height="93" filterUnits="userSpaceOnUse" color-interpolation-filters="sRGB"><feFlood flood-opacity="0" result="BackgroundImageFix"/><feColorMatrix in="SourceAlpha" values="0 0 0 0 0 0 0 0 0 0 0 0 0 0 0 0 0 0 127 0" result="hardAlpha"/><feOffset dy="4"/><feGaussianBlur stdDeviation="4"/><feComposite in2="hardAlpha" operator="out"/><feColorMatrix values="0 0 0 0 0.643137 0 0 0 0 0.678431 0 0 0 0 0.745098 0 0 0 0.2 0"/><feBlend in2="BackgroundImageFix" result="effect1_dropShadow_1251_5518"/><feBlend in="SourceGraphic" in2="effect1_dropShadow_1251_5518" result="shape"/></filter></defs></svg>