<svg width="128" height="128" fill="none" xmlns="http://www.w3.org/2000/svg"><circle cx="64" cy="64" r="64" fill="#F8F8F8"/><g filter="url(#a)"><path d="M16 38.64h94.852v58.356a4 4 0 0 1-4 4H20a4 4 0 0 1-4-4V38.64Z" fill="#FBFBFB"/></g><path d="M16 34.735a4 4 0 0 1 4-4h86.852a4 4 0 0 1 4 4v3.905H16v-3.905Z" fill="#E1E1E1"/><circle cx="31.41" cy="34.688" r="1.317" fill="#F1F1F1"/><circle cx="26.8" cy="34.688" r="1.317" fill="#F1F1F1"/><circle cx="22.189" cy="34.688" r="1.317" fill="#F1F1F1"/><rect width="36.504" height="6.603" rx="3.302" transform="scale(1.00408 .9959) rotate(45 -57.136 143.503)" fill="#C4C4C4"/><rect width="25.178" height="8.254" rx="2" transform="scale(1.00408 .9959) rotate(45 -60.638 154.775)" fill="#E1E1E1"/><path d="M95 59.5C95 76.897 80.673 91 63 91c-17.673 0-32-14.103-32-31.5S45.327 28 63 28c17.673 0 32 14.103 32 31.5Z" fill="#fff"/><path fill-rule="evenodd" clip-rule="evenodd" d="M103 59.5C103 81.434 84.972 99 63 99S23 81.434 23 59.5 41.028 20 63 20s40 17.566 40 39.5ZM63 91c17.673 0 32-14.103 32-31.5S80.673 28 63 28c-17.673 0-32 14.103-32 31.5S45.327 91 63 91Z" fill="#E1E1E1"/><path d="M63.104 42c-6.053.674-9.416 3.306-10.088 7.893-.135 1.485.605 2.295 2.22 2.43.806.135 1.478-.473 2.017-1.822.807-2.834 2.755-4.25 5.851-4.25 3.764.269 5.782 2.158 6.054 5.666 0 3.24-2.191 3.767-3.382 4.744-1.508 1.238-2.494 2.493-3.702 4.621-1.015 1.789-1.19 5.614-1.19 5.614 0 1.619.738 2.429 2.22 2.429 1.343 0 2.085-.81 2.22-2.43 0 0 .178-4.292 1.906-6.19 1.958-2.152 6.635-3.66 6.77-9.192-.538-5.803-4.17-8.974-10.896-9.513Zm0 29.366a2.812 2.812 0 0 0-2.808 2.817A2.812 2.812 0 0 0 63.104 77a2.813 2.813 0 0 0 2.808-2.817 2.813 2.813 0 0 0-2.808-2.817Z" fill="#D0D0D0"/><defs><filter id="a" x="8" y="34.64" width="110.853" height="78.356" filterUnits="userSpaceOnUse" color-interpolation-filters="sRGB"><feFlood flood-opacity="0" result="BackgroundImageFix"/><feColorMatrix in="SourceAlpha" values="0 0 0 0 0 0 0 0 0 0 0 0 0 0 0 0 0 0 127 0" result="hardAlpha"/><feOffset dy="4"/><feGaussianBlur stdDeviation="4"/><feComposite in2="hardAlpha" operator="out"/><feColorMatrix values="0 0 0 0 0.643137 0 0 0 0 0.678431 0 0 0 0 0.745098 0 0 0 0.2 0"/><feBlend in2="BackgroundImageFix" result="effect1_dropShadow_1251_5520"/><feBlend in="SourceGraphic" in2="effect1_dropShadow_1251_5520" result="shape"/></filter></defs></svg>