<svg width="128" height="128" fill="none" xmlns="http://www.w3.org/2000/svg"><g clip-path="url(#a)"><g opacity=".08" filter="url(#b)"><path d="M10 37h108v69a4 4 0 0 1-4 4H14a4 4 0 0 1-4-4V37Z" fill="#FBBC00"/></g><g filter="url(#c)"><path d="M15 41h98v61a4 4 0 0 1-4 4H19a4 4 0 0 1-4-4V41Z" fill="#fff"/></g><g opacity=".15" filter="url(#d)"><path d="M62.473 53.866c1.188-1.818 3.854-1.81 5.032.014l19.974 30.94c1.296 2.007-.16 4.65-2.549 4.627l-39.948-.376c-2.37-.023-3.78-2.657-2.483-4.641l19.974-30.564Z" fill="#FBBC00"/></g><g filter="url(#e)"><path d="M63.323 54.583a2 2 0 0 1 3.354 0L86.376 84.91c.864 1.33-.09 3.09-1.677 3.09H45.3c-1.586 0-2.541-1.76-1.677-3.09l19.699-30.328Z" fill="#FBBC00"/></g><path d="M66.828 64.828a2 2 0 0 0-4 0v10a2 2 0 0 0 4 0v-10Z" fill="#fff"/><path opacity=".3" d="M10 32a4 4 0 0 1 4-4h100a4 4 0 0 1 4 4v5H10v-5Z" fill="#FBBC00"/><circle cx="26.5" cy="32.5" r="1.5" fill="#fff"/><circle cx="22.5" cy="32.5" r="1.5" fill="#fff"/><circle cx="18.09" cy="32.5" r="1.5" fill="#fff"/><circle opacity=".2" cx="9.5" cy="119.5" r="4.5" fill="#FBBC00"/><path opacity=".2" d="M123 6.5a2.5 2.5 0 1 1-5 0 2.5 2.5 0 0 1 5 0Z" fill="#FBBC00"/><circle opacity=".2" cx="11" cy="21" r="3" fill="#FBBC00"/><path d="M67 81a2 2 0 1 1-4 0 2 2 0 0 1 4 0Z" fill="#fff"/></g><defs><filter id="b" x="-20" y="11" width="168" height="133" filterUnits="userSpaceOnUse" color-interpolation-filters="sRGB"><feFlood flood-opacity="0" result="BackgroundImageFix"/><feColorMatrix in="SourceAlpha" values="0 0 0 0 0 0 0 0 0 0 0 0 0 0 0 0 0 0 127 0" result="hardAlpha"/><feOffset dy="4"/><feGaussianBlur stdDeviation="15"/><feComposite in2="hardAlpha" operator="out"/><feColorMatrix values="0 0 0 0 0.976471 0 0 0 0 0.729412 0 0 0 0 0.0235294 0 0 0 0.4 0"/><feBlend in2="BackgroundImageFix" result="effect1_dropShadow_1313_5438"/><feBlend in="SourceGraphic" in2="effect1_dropShadow_1313_5438" result="shape"/></filter><filter id="c" x="7" y="37" width="114" height="81" filterUnits="userSpaceOnUse" color-interpolation-filters="sRGB"><feFlood flood-opacity="0" result="BackgroundImageFix"/><feColorMatrix in="SourceAlpha" values="0 0 0 0 0 0 0 0 0 0 0 0 0 0 0 0 0 0 127 0" result="hardAlpha"/><feOffset dy="4"/><feGaussianBlur stdDeviation="4"/><feComposite in2="hardAlpha" operator="out"/><feColorMatrix values="0 0 0 0 0.992157 0 0 0 0 0.913725 0 0 0 0 0.698039 0 0 0 0.08 0"/><feBlend in2="BackgroundImageFix" result="effect1_dropShadow_1313_5438"/><feBlend in="SourceGraphic" in2="effect1_dropShadow_1313_5438" result="shape"/></filter><filter id="d" x="12.006" y="30.507" width="105.958" height="96.94" filterUnits="userSpaceOnUse" color-interpolation-filters="sRGB"><feFlood flood-opacity="0" result="BackgroundImageFix"/><feColorMatrix in="SourceAlpha" values="0 0 0 0 0 0 0 0 0 0 0 0 0 0 0 0 0 0 127 0" result="hardAlpha"/><feOffset dy="8"/><feGaussianBlur stdDeviation="15"/><feComposite in2="hardAlpha" operator="out"/><feColorMatrix values="0 0 0 0 0.976471 0 0 0 0 0.729412 0 0 0 0 0.0235294 0 0 0 0.15 0"/><feBlend in2="BackgroundImageFix" result="effect1_dropShadow_1313_5438"/><feBlend in="SourceGraphic" in2="effect1_dropShadow_1313_5438" result="shape"/></filter><filter id="e" x="18.298" y="36.672" width="93.404" height="84.328" filterUnits="userSpaceOnUse" color-interpolation-filters="sRGB"><feFlood flood-opacity="0" result="BackgroundImageFix"/><feColorMatrix in="SourceAlpha" values="0 0 0 0 0 0 0 0 0 0 0 0 0 0 0 0 0 0 127 0" result="hardAlpha"/><feOffset dy="8"/><feGaussianBlur stdDeviation="12.5"/><feComposite in2="hardAlpha" operator="out"/><feColorMatrix values="0 0 0 0 0.976471 0 0 0 0 0.729412 0 0 0 0 0.0235294 0 0 0 0.08 0"/><feBlend in2="BackgroundImageFix" result="effect1_dropShadow_1313_5438"/><feBlend in="SourceGraphic" in2="effect1_dropShadow_1313_5438" result="shape"/></filter><clipPath id="a"><path fill="#fff" d="M0 0h128v128H0z"/></clipPath></defs></svg>