<svg width="128" height="128" fill="none" xmlns="http://www.w3.org/2000/svg"><g clip-path="url(#a)"><g opacity=".05" filter="url(#b)"><path d="M9 37h108v69a4 4 0 0 1-4 4H13a4 4 0 0 1-4-4V37Z" fill="#EA4921"/></g><g filter="url(#c)"><path d="M14 40h98v61a4 4 0 0 1-4 4H18a4 4 0 0 1-4-4V40Z" fill="#fff"/></g><g opacity=".15" filter="url(#d)"><path d="M63 95c12.15 0 22-9.85 22-22s-9.85-22-22-22-22 9.85-22 22 9.85 22 22 22Z" fill="#EA4921"/></g><g filter="url(#e)"><path d="M63 93c11.046 0 20-8.954 20-20s-8.954-20-20-20-20 8.954-20 20 8.954 20 20 20Z" fill="#EA4921"/></g><path fill-rule="evenodd" clip-rule="evenodd" d="M70.914 64.914a2 2 0 0 0-2.828 0L63 70l-5.086-5.086a2 2 0 0 0-2.828 2.829l5.086 5.086-5.258 5.257a2 2 0 1 0 2.829 2.828L63 75.657l5.257 5.257a2 2 0 0 0 2.829-2.828l-5.257-5.257 5.085-5.086a2 2 0 0 0 0-2.829Z" fill="#fff"/><path opacity=".2" d="M9 32a4 4 0 0 1 4-4h100a4 4 0 0 1 4 4v5H9v-5Z" fill="#EA4921"/><circle cx="25.5" cy="32.5" r="1.5" fill="#fff"/><circle cx="21.5" cy="32.5" r="1.5" fill="#fff"/><circle cx="17.09" cy="32.5" r="1.5" fill="#fff"/><circle opacity=".2" cx="8.5" cy="119.5" r="4.5" fill="#EA4921"/><path opacity=".2" d="M122 6.5a2.5 2.5 0 1 1-5 0 2.5 2.5 0 0 1 5 0Z" fill="#EA4921"/><circle opacity=".2" cx="10" cy="21" r="3" fill="#EA4921"/></g><defs><filter id="b" x="-21" y="17" width="168" height="133" filterUnits="userSpaceOnUse" color-interpolation-filters="sRGB"><feFlood flood-opacity="0" result="BackgroundImageFix"/><feColorMatrix in="SourceAlpha" values="0 0 0 0 0 0 0 0 0 0 0 0 0 0 0 0 0 0 127 0" result="hardAlpha"/><feOffset dy="10"/><feGaussianBlur stdDeviation="15"/><feComposite in2="hardAlpha" operator="out"/><feColorMatrix values="0 0 0 0 0.988235 0 0 0 0 0.878431 0 0 0 0 0.858824 0 0 0 1 0"/><feBlend in2="BackgroundImageFix" result="effect1_dropShadow_1313_5440"/><feBlend in="SourceGraphic" in2="effect1_dropShadow_1313_5440" result="shape"/></filter><filter id="c" x="6" y="36" width="114" height="81" filterUnits="userSpaceOnUse" color-interpolation-filters="sRGB"><feFlood flood-opacity="0" result="BackgroundImageFix"/><feColorMatrix in="SourceAlpha" values="0 0 0 0 0 0 0 0 0 0 0 0 0 0 0 0 0 0 127 0" result="hardAlpha"/><feOffset dy="4"/><feGaussianBlur stdDeviation="4"/><feComposite in2="hardAlpha" operator="out"/><feColorMatrix values="0 0 0 0 0.988235 0 0 0 0 0.878431 0 0 0 0 0.858824 0 0 0 0.08 0"/><feBlend in2="BackgroundImageFix" result="effect1_dropShadow_1313_5440"/><feBlend in="SourceGraphic" in2="effect1_dropShadow_1313_5440" result="shape"/></filter><filter id="d" x="11" y="29" width="104" height="104" filterUnits="userSpaceOnUse" color-interpolation-filters="sRGB"><feFlood flood-opacity="0" result="BackgroundImageFix"/><feColorMatrix in="SourceAlpha" values="0 0 0 0 0 0 0 0 0 0 0 0 0 0 0 0 0 0 127 0" result="hardAlpha"/><feOffset dy="8"/><feGaussianBlur stdDeviation="15"/><feComposite in2="hardAlpha" operator="out"/><feColorMatrix values="0 0 0 0 0.937255 0 0 0 0 0.392157 0 0 0 0 0.301961 0 0 0 0.15 0"/><feBlend in2="BackgroundImageFix" result="effect1_dropShadow_1313_5440"/><feBlend in="SourceGraphic" in2="effect1_dropShadow_1313_5440" result="shape"/></filter><filter id="e" x="18" y="36" width="90" height="90" filterUnits="userSpaceOnUse" color-interpolation-filters="sRGB"><feFlood flood-opacity="0" result="BackgroundImageFix"/><feColorMatrix in="SourceAlpha" values="0 0 0 0 0 0 0 0 0 0 0 0 0 0 0 0 0 0 127 0" result="hardAlpha"/><feOffset dy="8"/><feGaussianBlur stdDeviation="12.5"/><feComposite in2="hardAlpha" operator="out"/><feColorMatrix values="0 0 0 0 0.937255 0 0 0 0 0.392157 0 0 0 0 0.301961 0 0 0 0.08 0"/><feBlend in2="BackgroundImageFix" result="effect1_dropShadow_1313_5440"/><feBlend in="SourceGraphic" in2="effect1_dropShadow_1313_5440" result="shape"/></filter><clipPath id="a"><path fill="#fff" d="M0 0h128v128H0z"/></clipPath></defs></svg>