<svg width="128" height="128" fill="none" xmlns="http://www.w3.org/2000/svg"><circle cx="64" cy="64" r="64" fill="#F8F8F8"/><mask id="a" style="mask-type:alpha" maskUnits="userSpaceOnUse" x="14" y="26" width="103" height="102"><circle cx="65.299" cy="77" r="51" fill="#EAEEF9"/></mask><g filter="url(#b)" mask="url(#a)"><path d="M84 87H74v42h10V87Z" fill="#E2E3E6"/></g><g filter="url(#c)"><path d="M42.57 37.426h56.962c8.56 0 15.5 6.94 15.5 15.5v31.65a4 4 0 0 1-4 4H42.569v-51.15Z" fill="#E3E4E6"/></g><circle cx="102.5" cy="65.5" r="5.5" fill="#C4C4C4"/><path fill="#E9E9E9" d="M72 64h33v3H72z"/><path d="M68 67V52l5.667 4.375L78 52v15H68Z" fill="#FBFBFB"/><g filter="url(#d)"><path d="M21.257 54.788c0-9.59 7.773-17.362 17.361-17.362h2.574c9.589 0 17.362 7.773 17.362 17.361v33.789H21.257V54.788Z" fill="#D0D0D0"/></g><path d="M58.44 87.76H21.58c-2.95 4.953-6.635 12.03-2.95 18.399 3.687 6.369 16.22 7.785 26.54 1.416 8.257-5.096 12.287-15.333 13.27-19.815Z" fill="#E1E1E1"/><path fill-rule="evenodd" clip-rule="evenodd" d="M10.502 49.557c.664.12 1.312.24 1.947.36l-.374 1.965c-.627-.12-1.27-.238-1.927-.357l.354-1.968Zm5.822 1.141c1.358.291 2.641.587 3.855.887l-.48 1.941a123.757 123.757 0 0 0-3.794-.872l.42-1.956Zm7.68 1.918c1.367.403 2.63.817 3.797 1.243l-.685 1.879a60.948 60.948 0 0 0-3.678-1.203l.565-1.919Zm1.29 17.15c.857-1.387 2.197-2.141 3.682-2.477l.44 1.951c-1.101.249-1.914.758-2.42 1.578l-1.702-1.051Zm-.722 6.201a14.725 14.725 0 0 1-.215-2.014l1.999-.066c.017.523.077 1.101.187 1.74.13.762.334 1.406.59 1.946l-1.81.853a9.536 9.536 0 0 1-.751-2.459Zm6.939-20.563a27.673 27.673 0 0 1 3.54 2.002l-1.117 1.658a25.693 25.693 0 0 0-3.286-1.855l.863-1.805Zm1.562 11.79c1.285.165 2.596.477 3.841.861l-.59 1.911c-1.164-.359-2.36-.64-3.506-.789l.255-1.983Zm1.268 14.749c-1.715.448-3.5.513-5.102-.007l.617-1.902c1.146.371 2.527.353 3.979-.026l.506 1.935Zm3.884-21.903a18.459 18.459 0 0 1 2.523 3.28l-1.707 1.04a16.458 16.458 0 0 0-2.252-2.928l1.436-1.392Zm4.049 16.26c-.89 1.373-2.104 2.578-3.468 3.539l-1.152-1.635c1.184-.834 2.21-1.862 2.941-2.991l1.679 1.088Zm-.716-6.385c-.317-.16-.653-.32-1.005-.479l-.825 1.822a23.9 23.9 0 0 1 1.617.803c.529.29 1.111.71 1.736 1.245l1.302-1.517c-.199-.17-.398-.334-.597-.49a7.656 7.656 0 0 0-.484-2.472 50.467 50.467 0 0 0-.732-1.865l-1.846.77c.24.576.473 1.173.704 1.792.048.13.091.26.13.39Zm6.2 5.359a63.427 63.427 0 0 1 2.932 3.767l-1.62 1.172a61.493 61.493 0 0 0-2.838-3.647l1.527-1.292Zm5.606 7.697c.481.75.904 1.438 1.252 2.026l-1.721 1.019a66.493 66.493 0 0 0-1.215-1.967l1.684-1.078Z" fill="#C4C4C4"/><rect x="6.578" y="57.841" width="8.613" height="5.481" rx="2.74" transform="rotate(-75.34 6.578 57.84)" fill="#E1E1E1"/><rect x="8.183" y="49.925" width="8.613" height="5.481" rx="2.74" transform="rotate(-67.35 8.183 49.925)" fill="#E1E1E1"/><ellipse cx="10.599" cy="50.094" rx="2.711" ry="3.915" transform="rotate(-72.602 10.6 50.094)" fill="#C4C4C4"/><defs><filter id="b" x="66" y="83" width="26" height="58" filterUnits="userSpaceOnUse" color-interpolation-filters="sRGB"><feFlood flood-opacity="0" result="BackgroundImageFix"/><feColorMatrix in="SourceAlpha" values="0 0 0 0 0 0 0 0 0 0 0 0 0 0 0 0 0 0 127 0" result="hardAlpha"/><feOffset dy="4"/><feGaussianBlur stdDeviation="4"/><feComposite in2="hardAlpha" operator="out"/><feColorMatrix values="0 0 0 0 0.643137 0 0 0 0 0.678431 0 0 0 0 0.745098 0 0 0 0.2 0"/><feBlend in2="BackgroundImageFix" result="effect1_dropShadow_1251_5519"/><feBlend in="SourceGraphic" in2="effect1_dropShadow_1251_5519" result="shape"/></filter><filter id="c" x="34.569" y="33.426" width="88.463" height="67.15" filterUnits="userSpaceOnUse" color-interpolation-filters="sRGB"><feFlood flood-opacity="0" result="BackgroundImageFix"/><feColorMatrix in="SourceAlpha" values="0 0 0 0 0 0 0 0 0 0 0 0 0 0 0 0 0 0 127 0" result="hardAlpha"/><feOffset dy="4"/><feGaussianBlur stdDeviation="4"/><feComposite in2="hardAlpha" operator="out"/><feColorMatrix values="0 0 0 0 0.643137 0 0 0 0 0.678431 0 0 0 0 0.745098 0 0 0 0.2 0"/><feBlend in2="BackgroundImageFix" result="effect1_dropShadow_1251_5519"/><feBlend in="SourceGraphic" in2="effect1_dropShadow_1251_5519" result="shape"/></filter><filter id="d" x="13.257" y="33.426" width="53.297" height="67.15" filterUnits="userSpaceOnUse" color-interpolation-filters="sRGB"><feFlood flood-opacity="0" result="BackgroundImageFix"/><feColorMatrix in="SourceAlpha" values="0 0 0 0 0 0 0 0 0 0 0 0 0 0 0 0 0 0 127 0" result="hardAlpha"/><feOffset dy="4"/><feGaussianBlur stdDeviation="4"/><feComposite in2="hardAlpha" operator="out"/><feColorMatrix values="0 0 0 0 0.643137 0 0 0 0 0.678431 0 0 0 0 0.745098 0 0 0 0.2 0"/><feBlend in2="BackgroundImageFix" result="effect1_dropShadow_1251_5519"/><feBlend in="SourceGraphic" in2="effect1_dropShadow_1251_5519" result="shape"/></filter></defs></svg>