<svg width="128" height="128" fill="none" xmlns="http://www.w3.org/2000/svg"><circle cx="64" cy="64" r="64" fill="#F8F8F8"/><path d="M88.493 25H38.166L21 58l23.798 11h38.233L108 58 88.493 25Z" fill="#E1E1E1"/><g filter="url(#a)"><path d="M43.628 57H21c.26 11.42 0 35.771 0 41.826 0 7.569 7.413 7.17 9.363 7.17h69.444c7.023 0 8.193-5.178 8.193-7.17V57H84.202c-1.56 0-3.902 0-4.682 4.78-.78 4.78-1.17 6.374-5.072 6.374H52.601c-3.121 0-3.511-2.789-3.901-6.772-.313-3.187-3.512-4.25-5.072-4.382Z" fill="#FBFBFB"/></g><path fill-rule="evenodd" clip-rule="evenodd" d="M88.436 12.916c.056.672.108 1.33.156 1.974l-1.994.148c-.048-.638-.1-1.289-.155-1.954l1.993-.168Zm.405 5.92c.07 1.386.117 2.702.14 3.952l-2 .038c-.022-1.227-.069-2.521-.138-3.89l1.998-.1Zm.134 7.913a62.917 62.917 0 0 1-.217 3.99l-1.992-.176a60.94 60.94 0 0 0 .21-3.863l2 .05Zm-16.232 5.686c1.562.469 2.638 1.568 3.346 2.915l-1.77.93c-.526-1-1.227-1.652-2.15-1.93l.574-1.915Zm-6.176.907c.661-.305 1.291-.547 1.89-.73l.58 1.915c-.5.151-1.043.36-1.632.631a7.543 7.543 0 0 0-1.726 1.073l-1.293-1.526a9.537 9.537 0 0 1 2.181-1.363Zm21.658 1.38a27.693 27.693 0 0 1-1.016 3.938l-1.892-.65c.373-1.085.689-2.293.942-3.654l1.966.366Zm-10.983 4.561c.172 1.284.21 2.63.162 3.933l-1.999-.075c.046-1.217.009-2.447-.145-3.592l1.982-.266Zm-13.918 5.041c-.877-1.54-1.402-3.247-1.315-4.93l1.998.105c-.063 1.203.313 2.532 1.055 3.836l-1.738.99Zm22.161-1.916a18.459 18.459 0 0 1-2.514 3.286l-1.447-1.38a16.47 16.47 0 0 0 2.245-2.933l1.716 1.027Zm-14.658 8.12c-1.556-.505-3.034-1.366-4.316-2.435l1.282-1.536c1.112.928 2.37 1.652 3.65 2.067l-.616 1.903Zm5.983-2.345c.071-.348.14-.714.202-1.094l-1.973-.326c-.108.652-.23 1.25-.358 1.77-.143.585-.398 1.257-.753 1.998l1.803.865c.113-.235.22-.47.318-.703a7.657 7.657 0 0 0 2.263-1.107 50.46 50.46 0 0 0 1.612-1.19l-1.222-1.583c-.494.381-1.01.76-1.548 1.143-.114.08-.229.156-.344.227Zm-3.572 7.376a63.44 63.44 0 0 1-2.88 3.807l-1.552-1.262a61.515 61.515 0 0 0 2.79-3.685l1.642 1.14Zm-5.984 7.407c-.6.659-1.155 1.245-1.633 1.734l-1.43-1.4c.461-.47 1-1.039 1.586-1.681l1.477 1.347Z" fill="#C4C4C4"/><rect x="79" y="11.983" width="8.613" height="5.481" rx="2.74" transform="rotate(-10.942 79 11.983)" fill="#E1E1E1"/><rect x="86.832" y="10.01" width="8.613" height="5.481" rx="2.74" transform="rotate(-2.952 86.832 10.01)" fill="#E1E1E1"/><ellipse cx="87.724" cy="12.262" rx="2.711" ry="3.915" transform="rotate(-8.203 87.724 12.262)" fill="#C4C4C4"/><defs><filter id="a" x="13" y="53" width="103" height="65" filterUnits="userSpaceOnUse" color-interpolation-filters="sRGB"><feFlood flood-opacity="0" result="BackgroundImageFix"/><feColorMatrix in="SourceAlpha" values="0 0 0 0 0 0 0 0 0 0 0 0 0 0 0 0 0 0 127 0" result="hardAlpha"/><feOffset dy="4"/><feGaussianBlur stdDeviation="4"/><feComposite in2="hardAlpha" operator="out"/><feColorMatrix values="0 0 0 0 0.643137 0 0 0 0 0.678431 0 0 0 0 0.745098 0 0 0 0.2 0"/><feBlend in2="BackgroundImageFix" result="effect1_dropShadow_1251_5522"/><feBlend in="SourceGraphic" in2="effect1_dropShadow_1251_5522" result="shape"/></filter></defs></svg>