<svg width="128" height="128" fill="none" xmlns="http://www.w3.org/2000/svg"><circle cx="64" cy="64" r="64" fill="#F8F8F8"/><g filter="url(#a)"><path fill-rule="evenodd" clip-rule="evenodd" d="M75.343 92.886c-21.35 0-38.657-15.197-38.657-33.943S53.993 25 75.343 25C96.693 25 114 40.197 114 58.943c0 10.185-5.109 19.323-13.2 25.544v18.299L85.545 91.691a43.766 43.766 0 0 1-10.202 1.195Z" fill="#E1E1E1"/></g><ellipse cx="53.5" cy="59" rx="38.5" ry="34" fill="#fff"/><path d="M44 91.308 28 84v19l16-11.692Z" fill="#fff"/><path d="M38.46 64.486a3.567 3.567 0 1 0 0-7.135 3.567 3.567 0 0 0 0 7.135ZM53.568 64.486a3.567 3.567 0 1 0 0-7.135 3.567 3.567 0 0 0 0 7.135ZM68.568 64.486a3.567 3.567 0 1 0 0-7.135 3.567 3.567 0 0 0 0 7.135Z" fill="#C4C4C4"/><defs><filter id="a" x="28.686" y="21" width="93.314" height="93.786" filterUnits="userSpaceOnUse" color-interpolation-filters="sRGB"><feFlood flood-opacity="0" result="BackgroundImageFix"/><feColorMatrix in="SourceAlpha" values="0 0 0 0 0 0 0 0 0 0 0 0 0 0 0 0 0 0 127 0" result="hardAlpha"/><feOffset dy="4"/><feGaussianBlur stdDeviation="4"/><feComposite in2="hardAlpha" operator="out"/><feColorMatrix values="0 0 0 0 0.643137 0 0 0 0 0.678431 0 0 0 0 0.745098 0 0 0 0.2 0"/><feBlend in2="BackgroundImageFix" result="effect1_dropShadow_1251_5523"/><feBlend in="SourceGraphic" in2="effect1_dropShadow_1251_5523" result="shape"/></filter></defs></svg>