<svg width="128" height="128" fill="none" xmlns="http://www.w3.org/2000/svg"><circle cx="64" cy="64" r="64" fill="#F8F8F8"/><g filter="url(#a)"><path d="M14 33h100v57a4 4 0 0 1-4 4H18a4 4 0 0 1-4-4V33Z" fill="#FBFBFB"/></g><path d="M14 31a4 4 0 0 1 4-4h92a4 4 0 0 1 4 4v4H14v-4Z" fill="#E1E1E1"/><circle cx="27" cy="31" r="1" fill="#fff"/><circle cx="23" cy="31" r="1" fill="#fff"/><circle cx="19" cy="31" r="1" fill="#fff"/><path d="M65.6 73.25h-3.2c-.96 0-1.6.65-1.6 1.625s.64 1.625 1.6 1.625h3.2c.96 0 1.6-.65 1.6-1.625s-.64-1.625-1.6-1.625Zm12.8 6.5h-1.6c0-6.825-3.84-10.725-6.4-13.65-.96-.975-2.24-1.95-2.24-2.6 0-.325.96-.975 1.6-1.3 2.56-1.95 7.04-5.525 7.04-14.95h1.6c.96 0 1.6-.65 1.6-1.625S79.36 44 78.4 44H49.6c-.96 0-1.6.65-1.6 1.625s.64 1.625 1.6 1.625h1.6c0 9.425 4.48 13 7.04 14.95.64.325 1.6.975 1.6 1.3 0 .65-1.28 1.625-2.24 2.925-2.56 2.6-6.4 6.5-6.4 13.325h-1.6c-.96 0-1.6.65-1.6 1.625S48.64 83 49.6 83h28.8c.96 0 1.6-.65 1.6-1.625s-.64-1.625-1.6-1.625Zm-24 0c0-5.525 3.2-8.775 5.44-11.375 1.6-1.625 3.2-3.25 3.2-4.875 0-1.95-1.28-2.925-2.88-3.9-2.56-1.95-5.76-4.55-5.76-12.35h19.2c0 7.8-3.2 10.4-5.76 12.35-1.6.975-2.88 1.95-2.88 3.9s1.6 3.25 3.2 4.875c2.24 2.6 5.44 5.85 5.44 11.375H54.4Z" fill="#C4C4C4"/><defs><filter id="a" x="6" y="29" width="116" height="77" filterUnits="userSpaceOnUse" color-interpolation-filters="sRGB"><feFlood flood-opacity="0" result="BackgroundImageFix"/><feColorMatrix in="SourceAlpha" values="0 0 0 0 0 0 0 0 0 0 0 0 0 0 0 0 0 0 127 0" result="hardAlpha"/><feOffset dy="4"/><feGaussianBlur stdDeviation="4"/><feComposite in2="hardAlpha" operator="out"/><feColorMatrix values="0 0 0 0 0.643137 0 0 0 0 0.678431 0 0 0 0 0.745098 0 0 0 0.2 0"/><feBlend in2="BackgroundImageFix" result="effect1_dropShadow_1251_5524"/><feBlend in="SourceGraphic" in2="effect1_dropShadow_1251_5524" result="shape"/></filter></defs></svg>