<svg width="100" height="26" viewBox="0 0 100 26" fill="none" xmlns="http://www.w3.org/2000/svg">
<g clip-path="url(#clip0_2803_78107)">
<path fill-rule="evenodd" clip-rule="evenodd" d="M30 12.4536C30 11.455 28.8515 10.8933 28.0633 11.5063L22.073 16.1654C21.5032 16.6086 21.4508 17.4508 21.9612 17.9612L27.9515 23.9515C28.7074 24.7074 30 24.172 30 23.1029V12.4536Z" fill="white"/>
<path fill-rule="evenodd" clip-rule="evenodd" d="M8.0388 17.9612C8.54919 17.4508 8.49676 16.6086 7.927 16.1654L1.93673 11.5063C1.1485 10.8933 0 11.455 0 12.4536V23.1029C0 24.172 1.29257 24.7074 2.04853 23.9515L8.0388 17.9612Z" fill="white"/>
<path fill-rule="evenodd" clip-rule="evenodd" d="M15.7446 11.2841C15.3081 11.6296 14.6914 11.6296 14.255 11.2841L1.9448 1.53949C1.15811 0.916749 0 1.47704 0 2.48038V6.54575C0 6.91245 0.167674 7.25903 0.4552 7.48664L14.255 18.4104C14.6914 18.7559 15.3081 18.7559 15.7446 18.4104L19.5014 15.4366L29.5448 7.48664C29.8323 7.25903 30 6.91245 30 6.54574V2.48033C30 1.47701 28.8419 0.916709 28.0552 1.53943L15.7446 11.2841Z" fill="#11FCD4"/>
<path fill-rule="evenodd" clip-rule="evenodd" d="M43.6278 15.0341L40.9342 7.00146H37.9999L42.4691 19.0012H44.651L48.9999 7.00146H46.216L43.6278 15.0341ZM59.0849 7.00146H60.9998V19.0012H58.595V11.8866L56.1456 15.7554H54.8541L52.375 11.8538V19.0012H49.9998V7.00146H51.9594L55.537 12.7882L59.0849 7.00146ZM71.5295 16.519C72.5575 16.519 73.3052 15.971 73.7725 14.8748L75.9999 16.2028C75.8338 16.7088 75.5482 17.1778 75.1432 17.6099C74.7382 18.0315 74.2294 18.3688 73.6167 18.6218C73.0144 18.8747 72.3395 19.0012 71.5918 19.0012C70.5638 19.0012 69.624 18.7535 68.7725 18.2581C67.921 17.7628 67.246 17.0618 66.7476 16.1554C66.2491 15.2384 65.9999 14.1844 65.9999 12.9934C65.9999 11.8024 66.2491 10.7537 66.7476 9.84725C67.246 8.94082 67.921 8.23991 68.7725 7.74453C69.624 7.24915 70.5638 7.00146 71.5918 7.00146C72.3395 7.00146 73.0144 7.12794 73.6167 7.3809C74.2294 7.63386 74.7382 7.97641 75.1432 8.40855C75.5482 8.83015 75.8338 9.2939 75.9999 9.79982L73.7725 11.1279C73.3052 10.0317 72.5575 9.48362 71.5295 9.48362C71.0207 9.48362 70.5586 9.62591 70.1432 9.91049C69.7382 10.1845 69.4111 10.5903 69.1619 11.1279C68.9231 11.6549 68.8036 12.2767 68.8036 12.9934C68.8036 13.7101 68.9231 14.3373 69.1619 14.8748C69.4111 15.4123 69.7382 15.8234 70.1432 16.108C70.5586 16.382 71.0207 16.519 71.5295 16.519ZM76.722 9.79982C76.2406 10.7063 75.9999 11.7708 75.9999 12.9934C75.9999 14.2266 76.2406 15.2964 76.722 16.2028C77.2136 17.1093 77.8742 17.8049 78.7038 18.2897C79.5437 18.764 80.4757 19.0012 81.4999 19.0012C82.5139 19.0012 83.4357 18.764 84.2653 18.2897C85.1051 17.8049 85.7709 17.1093 86.2625 16.2028C86.7541 15.2964 86.9999 14.2266 86.9999 12.9934C86.9999 11.7708 86.7541 10.7063 86.2625 9.79982C85.7709 8.89339 85.1051 8.20302 84.2653 7.72872C83.4357 7.24388 82.5139 7.00146 81.4999 7.00146C80.4859 7.00146 79.559 7.24388 78.7192 7.72872C77.8793 8.20302 77.2136 8.89339 76.722 9.79982ZM79.1186 14.859C78.8933 14.3215 78.7806 13.6996 78.7806 12.9934C78.7806 12.2978 78.8933 11.6865 79.1186 11.1595C79.3542 10.6219 79.6768 10.2109 80.0865 9.9263C80.4962 9.63118 80.9673 9.48362 81.4999 9.48362C82.0325 9.48362 82.5036 9.63118 82.9133 9.9263C83.3332 10.2109 83.6559 10.6219 83.8812 11.1595C84.1168 11.6865 84.2345 12.2978 84.2345 12.9934C84.2345 13.6996 84.1168 14.3215 83.8812 14.859C83.6559 15.3965 83.3332 15.8129 82.9133 16.108C82.5036 16.3926 82.0325 16.5348 81.4999 16.5348C80.9673 16.5348 80.4962 16.3926 80.0865 16.108C79.6768 15.8129 79.3542 15.3965 79.1186 14.859ZM99.9999 7.00146H98.0849L94.537 12.7882L90.9594 7.00146H88.9999V19.0012H91.375V11.8538L93.8541 15.7554H95.1456L97.595 11.8866V19.0012H99.9999V7.00146ZM63.4262 18.5687C63.7209 18.8574 64.0736 19.0017 64.4841 19.0017C64.9051 19.0017 65.263 18.8574 65.5578 18.5687C65.8525 18.2697 65.9999 17.9141 65.9999 17.5017C65.9999 17.0893 65.8525 16.7388 65.5578 16.4502C65.263 16.1512 64.9051 16.0017 64.4841 16.0017C64.0736 16.0017 63.7209 16.1512 63.4262 16.4502C63.142 16.7388 62.9999 17.0893 62.9999 17.5017C62.9999 17.9141 63.142 18.2697 63.4262 18.5687Z" fill="white"/>
</g>
<defs>
<clipPath id="clip0_2803_78107">
<rect width="100" height="26" fill="white"/>
</clipPath>
</defs>
</svg>
