<svg width="25" height="22" viewBox="0 0 25 22" fill="none" xmlns="http://www.w3.org/2000/svg">
<g clip-path="url(#clip0_823_292404)">
<path d="M22.4806 2H3.381V5.31278H0V16.6558H3.381V20H22.4806C23.8726 20 25 18.9163 25 17.5784V4.42165C25 3.0837 23.8726 2 22.4806 2Z" fill="#69AE07"/>
<path d="M5.36269 9.84399H3.15234V12.0315H5.36269V9.84399Z" fill="#FEFEFE"/>
<path d="M9.34308 3.56201H7.37891V5.46761H9.34308V3.56201Z" fill="#FEFEFE"/>
<path d="M7.37891 18.0932H9.34308V7.81128L7.37891 7.93714V18.0932Z" fill="#FEFEFE"/>
<path d="M17.7505 3.59351H16.1255C13.3966 3.59351 11.1836 5.72063 11.1836 8.34366V13.5306C11.1836 16.1536 13.3966 18.2807 16.1255 18.2807H17.7505C20.4794 18.2807 22.6923 16.1536 22.6923 13.5306V8.34366C22.6923 5.72063 20.4794 3.59351 17.7505 3.59351V3.59351ZM20.8067 13.2965C20.8067 15.1517 19.2419 16.6558 17.3118 16.6558H16.5969C14.6667 16.6558 13.1019 15.1517 13.1019 13.2965V8.67217C13.1019 6.81692 14.6667 5.31283 16.5969 5.31283H17.3118C19.2419 5.31283 20.8067 6.81692 20.8067 8.67217V13.2965Z" fill="#FEFEFE"/>
</g>
<defs>
<clipPath id="clip0_823_292404">
<rect width="25" height="18" fill="white" transform="translate(0 2)"/>
</clipPath>
</defs>
</svg>
