<svg width="37" height="22" viewBox="0 0 37 22" fill="none" xmlns="http://www.w3.org/2000/svg">
<g clip-path="url(#clip0_823_292407)">
<path d="M8.64378 7.2997C8.64378 7.2997 11.4069 5.35898 14.9479 6.52984C14.9479 6.52984 16.6305 7.12459 16.6476 10.0279V17.2344C16.6476 17.2344 16.7893 18.2312 15.6565 18.283H13.8855C13.8855 18.283 12.9829 18.3006 13.033 16.9546V10.1678C13.033 10.1678 13.033 8.71717 10.8368 9.18862C10.8368 9.18862 9.61455 9.38135 9.55807 10.0984V17.5836C9.55807 17.5836 9.46963 18.2664 8.56599 18.283H6.73208C6.73208 18.283 6.05862 18.2488 6.02345 17.4437L5.95312 7.2997C5.95312 7.2997 5.97017 6.63553 6.87381 6.38996L7.72629 6.46042C7.72629 6.46042 8.25484 6.52984 8.64378 7.2997ZM21.4449 13.4773H27.4613C28.3639 13.1986 28.1007 12.2246 28.1007 12.2246C28.2073 9.02594 27.0351 7.56185 27.0351 7.56185C24.0269 4.66061 20.098 6.72774 20.098 6.72774C17.8687 7.82296 17.8325 11.3905 17.8325 11.3905C17.3551 17.3194 20.8056 18.1358 20.8056 18.1358C24.3625 18.9648 26.7516 18.0664 26.7516 18.0664C27.9547 17.6147 27.8172 16.536 27.8172 16.536C27.9057 14.8502 26.6856 15.1455 26.6856 15.1455C25.2694 15.5973 23.5708 15.6325 23.5708 15.6325C21.836 15.5807 21.447 14.5891 21.447 14.5891C20.9846 13.5467 21.4449 13.4773 21.4449 13.4773ZM22.7748 8.80213C25.3323 8.4602 24.8357 11.3231 24.8357 11.3231H21.3522C21.1391 9.01869 22.7748 8.80213 22.7748 8.80213ZM30.4749 6.56818V4.91032C30.4749 4.91032 30.3161 4.16947 31.467 3.87417L32.5326 3.59855C32.5326 3.59855 34.0564 3.1157 34.0915 4.28759V6.42415H36.1471C36.1471 6.42415 36.9623 6.37234 36.9996 7.38881V8.7669C36.9996 8.7669 36.9111 9.54195 36.1471 9.52537H34.1619C34.1619 9.52537 34.1043 13.4835 34.0926 14.2793V14.4181C34.1167 14.6732 34.2272 14.9134 34.4067 15.1009C34.5863 15.2884 34.8247 15.4127 35.0847 15.4543L36.0778 15.5237C36.0778 15.5237 36.8035 15.7133 36.7865 16.3526V17.6623C36.7865 17.6623 36.7151 18.3338 35.5813 18.4912C34.4408 18.5443 33.302 18.3558 32.2438 17.939C32.2438 17.939 30.7114 17.597 30.4749 15.1103L30.5463 9.59687L30.4045 9.52848H29.1993C29.0152 9.48846 28.8484 9.39412 28.7215 9.25835C28.5947 9.12259 28.5141 8.95203 28.4907 8.77001V7.73385C28.4907 7.73385 28.5142 6.94119 29.3432 6.83861L30.4749 6.56818Z" fill="#333333"/>
<path d="M3.9695 13.9214C3.54984 13.6466 3.05645 13.5 2.55172 13.5C1.87515 13.5 1.22627 13.7632 0.74776 14.2319C0.269249 14.7005 0.000282837 15.3361 0 15.999C-0.00021061 16.4935 0.149266 16.9769 0.429525 17.3882C0.709784 17.7994 1.10823 18.12 1.57448 18.3094C2.04073 18.4988 2.55383 18.5484 3.04889 18.4521C3.54394 18.3557 3.99872 18.1177 4.35569 17.7681C4.71266 17.4185 4.95579 16.9731 5.05434 16.4881C5.15288 16.0031 5.10241 15.5004 4.90931 15.0435C4.71621 14.5867 4.38915 14.1961 3.9695 13.9214Z" fill="#F8CE04"/>
</g>
<defs>
<clipPath id="clip0_823_292407">
<rect width="37" height="15" fill="white" transform="translate(0 3.5)"/>
</clipPath>
</defs>
</svg>
