<svg width="37" height="22" viewBox="0 0 37 22" fill="none" xmlns="http://www.w3.org/2000/svg">
<g clip-path="url(#clip0_823_292403)">
<path d="M20.4926 0.0285255C24.1654 0.0285255 27.842 0.113208 31.5111 0.00158123C34.3199 -0.0831008 36.8496 2.16482 36.9383 5.42508C37.0081 7.95207 37.0099 10.4829 36.9816 13.0118C36.9533 15.5811 34.8387 17.8849 32.3298 17.8945C29.7699 17.9041 27.1836 18.2698 24.6464 17.6097C24.0673 17.4595 23.9692 17.9619 23.7504 18.2679C22.0583 20.639 19.87 22.0401 16.9103 21.9977C14.5258 21.9631 12.5527 20.4484 11.949 18.0677C11.8075 17.5154 11.7038 17.4518 11.1586 17.6289C8.64591 18.4488 6.05587 18.3987 3.55638 17.7444C1.2776 17.1497 0.0269144 15.1135 -0.0013817 12.6654C-0.0315642 10.0191 1.13424 8.12528 3.42245 7.27654C4.02044 7.05521 4.04496 6.76652 3.9978 6.22186C3.73559 3.10017 5.28245 0.744473 7.97624 0.144001C8.46104 0.0362239 8.97415 0.0342993 9.47404 0.0342993C13.1469 0.0266009 16.8197 0.0304501 20.4926 0.0304501V0.0285255Z" fill="#651B76"/>
<path d="M6.45282 13.6503C7.03848 13.0527 7.03848 12.084 6.45282 11.4865C5.86715 10.8889 4.9176 10.8889 4.33193 11.4865C3.74626 12.084 3.74626 13.0527 4.33193 13.6503C4.9176 14.2478 5.86715 14.2478 6.45282 13.6503Z" fill="white"/>
<path d="M15.7688 12.2614L13.4466 9.14549L15.7688 6.02958C16.1479 5.52148 16.0498 4.79784 15.5518 4.41099C15.0538 4.02415 14.3445 4.12423 13.9654 4.63232L12.0224 7.23822L10.0794 4.63232C9.70019 4.12423 8.9909 4.02608 8.49288 4.41099C7.99487 4.79784 7.89867 5.52148 8.27595 6.02958L10.5981 9.14549L8.27595 12.2614C7.89678 12.7695 7.99487 13.4931 8.49288 13.88C8.6985 14.0397 8.93808 14.1148 9.17765 14.1148C9.51909 14.1148 9.85676 13.957 10.0794 13.6587L12.0224 11.0528L13.9654 13.6587C14.1879 13.957 14.5256 14.1148 14.8671 14.1148C15.1066 14.1148 15.3462 14.0378 15.5518 13.88C16.0498 13.4931 16.146 12.7695 15.7688 12.2614Z" fill="white"/>
<path d="M24.3218 4.33979C23.7521 4.07997 23.0824 4.33979 22.8259 4.92102L20.5056 10.2021L18.4532 5.02302C18.2192 4.43217 17.559 4.14541 16.9799 4.38598C16.4008 4.62463 16.1216 5.29824 16.3555 5.88908L19.2228 13.1217L18.7003 14.313C18.4664 14.8442 18.0212 15.258 17.4798 15.4447L16.6969 15.7141C16.1046 15.9181 15.7877 16.5744 15.9876 17.1787C16.148 17.6599 16.5875 17.964 17.0591 17.964C17.1798 17.964 17.3025 17.9447 17.4213 17.9024L18.2023 17.6329C19.3379 17.2403 20.2717 16.3762 20.7621 15.2599L24.8896 5.86791C25.1461 5.28669 24.8896 4.60346 24.3199 4.34171L24.3218 4.33979Z" fill="white"/>
<path d="M31.9247 11.6475H28.5556L32.6038 6.17204C32.8245 5.96034 32.9641 5.66203 32.9641 5.32907C32.9641 4.69203 32.4567 4.17432 31.8323 4.17432H26.5164C25.892 4.17432 25.3845 4.69203 25.3845 5.32907C25.3845 5.96611 25.892 6.48383 26.5164 6.48383H29.5384L25.4279 12.044C25.0506 12.554 25.1506 13.2776 25.6505 13.6606C25.675 13.6799 25.7033 13.6953 25.7298 13.7107C25.9222 13.8646 26.1636 13.9551 26.4258 13.9551H31.9266C32.551 13.9551 33.0584 13.4374 33.0584 12.8003C33.0584 12.1633 32.551 11.6456 31.9266 11.6456L31.9247 11.6475Z" fill="white"/>
</g>
<defs>
<clipPath id="clip0_823_292403">
<rect width="37" height="22" fill="white"/>
</clipPath>
</defs>
</svg>
