<svg width="22" height="22" viewBox="0 0 22 22" fill="none" xmlns="http://www.w3.org/2000/svg">
<g clip-path="url(#clip0_823_292402)">
<path d="M14.9686 13.7766C13.9115 13.7804 13.055 14.5678 13.0412 15.5482C13.0279 16.527 13.9046 17.3467 14.968 17.3483C16.0407 17.35 16.9047 16.5534 16.9059 15.5617C16.907 14.5727 16.0384 13.7723 14.9686 13.7766Z" fill="#FF6B00"/>
<path d="M16.6552 2.13727C16.3552 1.8527 16.0316 1.73628 15.6056 1.73682C10.8509 1.74598 6.09615 1.74221 1.34141 1.74275C0.446172 1.74275 0 2.16206 0 3.00446C0 8.33642 0 13.6689 0 19.0009C0 19.8357 0.454842 20.2626 1.34545 20.2626C4.22361 20.2626 7.10119 20.2626 9.97935 20.2626C12.8957 20.2626 15.812 20.2637 18.7288 20.2621C19.4958 20.2621 19.972 19.8147 19.972 19.1028C19.972 14.5965 19.9708 10.0902 19.976 5.58394C19.976 5.34464 19.9171 5.15492 19.7287 4.98245C18.6982 4.03981 17.6677 3.09662 16.6552 2.13727V2.13727ZM2.13781 18.6198C1.67893 18.6118 1.30153 18.2501 1.30615 17.8222C1.31078 17.3996 1.70667 17.0428 2.1644 17.0498C2.6308 17.0568 2.99317 17.4066 2.9897 17.847C2.98623 18.2781 2.60075 18.6285 2.13781 18.6204V18.6198ZM10.7937 16.2964C10.5926 17.1027 10.1493 17.7694 9.44186 18.2738C8.77087 18.7524 8.01319 19.0014 7.10119 18.988C5.24079 18.9853 3.62833 17.584 3.49714 15.8032C3.36421 14.0015 4.75301 12.4175 6.67814 12.1744C8.58246 11.934 10.3463 13.0567 10.7891 14.7786C10.8486 15.0099 10.7804 15.0826 10.5423 15.0848C10.1759 15.0886 9.81175 15.0832 9.45574 14.9872C9.14711 14.9037 8.92229 14.7258 8.72926 14.4871C8.06809 13.6711 6.80933 13.5374 5.95975 14.1815C5.15526 14.7916 5.031 15.9466 5.68985 16.6914C6.38801 17.481 7.64851 17.5764 8.47381 16.8995C8.55992 16.8289 8.6391 16.7486 8.71019 16.6645C9.12746 16.1708 10.0637 15.89 10.7157 16.0608C10.8879 16.1061 10.8145 16.2123 10.7937 16.2964V16.2964ZM14.9763 18.988C12.9292 18.988 11.2774 17.453 11.2826 15.5542C11.2878 13.656 12.939 12.1345 14.993 12.1361C17.006 12.1377 18.6826 13.6916 18.6855 15.5569C18.6884 17.4384 17.0135 18.988 14.9763 18.988V18.988Z" fill="#FF6B00"/>
<path d="M21.9964 19.9387C22.0022 19.7867 21.9975 19.6342 21.9975 19.4817C21.9975 19.4041 21.9883 19.3394 21.8768 19.3399C21.7906 19.3399 21.7288 19.3588 21.7022 19.4445C21.6733 19.5372 21.6739 19.6418 21.578 19.7345C21.5473 19.6331 21.5196 19.5491 21.497 19.4634C21.4716 19.3696 21.4098 19.334 21.3081 19.3394C21.1798 19.3464 21.1861 19.4305 21.1855 19.5119C21.1844 19.6197 21.1746 19.7285 21.189 19.8342C21.2017 19.9296 21.1185 20.095 21.2722 20.1036C21.4335 20.1128 21.3023 19.9209 21.3994 19.8374C21.4976 19.929 21.4225 20.1193 21.5976 20.1182C21.7721 20.1171 21.6895 19.9091 21.8115 19.8309C21.819 19.8751 21.8253 19.9091 21.8305 19.943C21.8409 20.0093 21.8097 20.1123 21.9195 20.1101C22.0316 20.1074 21.9941 20.0029 21.9964 19.9393V19.9387Z" fill="#FF6B00"/>
<path d="M20.496 19.3502C20.4168 19.354 20.4116 19.4499 20.4642 19.4531C20.7624 19.4709 20.6231 19.6784 20.659 19.8099C20.6867 19.9118 20.5815 20.1015 20.7416 20.0999C20.9179 20.0983 20.8283 19.9042 20.8318 19.7981C20.8381 19.6186 20.8144 19.4413 21.115 19.4343C21.1028 19.4052 21.0907 19.3761 21.0785 19.347C20.8844 19.347 20.6902 19.341 20.4966 19.3497L20.496 19.3502Z" fill="#FF6B00"/>
</g>
<defs>
<clipPath id="clip0_823_292402">
<rect width="22" height="18.5263" fill="white" transform="translate(0 1.73682)"/>
</clipPath>
</defs>
</svg>
