<svg width="42" height="22" viewBox="0 0 42 22" fill="none" xmlns="http://www.w3.org/2000/svg">
<g clip-path="url(#clip0_823_292408)">
<path d="M11.8945 16.1319C8.10652 16.0848 7.26922 15.2555 7.21438 11.6446C7.20341 10.9239 7.19975 10.1995 7.21438 9.4788C7.229 8.77256 7.22169 8.15687 6.21255 8.16773C5.36063 8.1786 5.50323 7.45787 5.55076 6.96894C5.60926 6.38222 5.13394 5.42246 6.0992 5.31743C7.30213 5.18705 7.30213 4.4627 7.19244 3.68041C6.995 2.23534 7.67507 1.86592 8.96209 2.03976C9.32041 2.09047 9.69701 2.09047 10.0553 2.03976C11.3387 1.85143 11.8396 2.36934 11.6641 3.63333C11.5215 4.65828 11.7116 5.40073 13.0718 5.25948C14.3881 5.12548 14.0261 6.17578 14.0955 6.88926C14.176 7.73675 13.9603 8.34157 12.9182 8.18584C11.803 8.01924 11.5764 8.60234 11.6458 9.54761C11.708 10.3879 11.6678 11.2317 11.6751 12.0756C11.6787 12.608 11.8835 13.1621 12.4356 13.1295C14.2491 13.0172 13.9456 14.2414 13.8762 15.2736C13.7665 16.9142 12.421 15.7263 11.8945 16.1283V16.1319Z" fill="#D83715"/>
<path d="M2.67971 15.9908C1.283 16.0415 0.0764193 14.9477 -0.000363154 13.5714C-0.0771456 12.1155 1.10384 10.8914 2.5883 10.8914C4.01426 10.8914 5.13675 11.9851 5.15503 13.394C5.17697 14.7992 4.08373 15.9437 2.67605 15.9944L2.67971 15.9908Z" fill="#D63615"/>
<path d="M40.5584 6.18682C38.8254 4.15865 36.2001 3.60091 33.6261 4.70191C33.2641 4.85403 32.8729 5.39004 32.5219 5.03873C31.5786 4.09346 30.4488 4.7164 29.4213 4.54618C28.3647 4.36871 28.0795 4.89749 28.1051 5.88622C28.1636 8.04839 28.1233 10.2106 28.1233 12.3727C28.1233 13.8758 28.1233 15.3752 28.1233 16.8782C28.1233 20.2971 28.1197 20.2717 31.4762 19.7393C32.361 19.5981 32.7924 19.2613 32.723 18.3522C32.6864 17.8741 32.7486 17.3888 32.712 16.9108C32.6243 15.7518 32.6754 15.1108 34.2294 15.7265C36.7778 16.7369 39.4396 15.7591 40.9314 13.5607C42.4817 11.2754 42.3281 8.26207 40.5548 6.19044L40.5584 6.18682ZM35.319 13.184C33.8162 13.1333 32.4963 11.6955 32.5402 10.1635C32.584 8.58079 33.9186 7.30232 35.4798 7.34578C37.0374 7.38924 38.3098 8.75101 38.2586 10.3228C38.2074 11.8838 36.818 13.2347 35.319 13.184Z" fill="#D83715"/>
<path d="M20.9406 4.22377C17.3392 4.20204 14.5055 6.85314 14.5275 10.2322C14.5494 13.5316 17.3209 16.1212 20.8492 16.1393C24.4105 16.1574 27.3538 13.4266 27.3209 10.1417C27.288 6.92195 24.4032 4.2455 20.937 4.22739L20.9406 4.22377ZM20.9735 12.9268C19.3319 12.963 17.9827 11.7207 17.9863 10.1779C17.99 8.70747 19.2514 7.48694 20.8054 7.44348C22.458 7.40002 23.7596 8.6133 23.756 10.1924C23.756 11.699 22.5421 12.8906 20.9735 12.9268Z" fill="#D83715"/>
</g>
<defs>
<clipPath id="clip0_823_292408">
<rect width="42" height="18" fill="white" transform="translate(0 2)"/>
</clipPath>
</defs>
</svg>
