<svg width="38" height="22" viewBox="0 0 38 22" fill="none" xmlns="http://www.w3.org/2000/svg">
<g clip-path="url(#clip0_823_292405)">
<path d="M3.98226 16.0746C3.98653 17.0183 3.21232 17.793 2.2579 17.7993C1.30135 17.8063 0.49152 17.0036 0.500067 16.0585C0.508614 15.1449 1.28995 14.3893 2.24081 14.3759C3.20021 14.3619 3.97799 15.1218 3.98226 16.0753V16.0746Z" fill="#CE742A"/>
<path d="M12.6424 4.00342C12.5647 4.00342 12.4935 4.02166 12.5248 4.122C12.7015 4.67911 12.4629 5.1857 12.2898 5.68246C11.5362 7.84074 10.7542 9.98989 9.98211 12.1418C9.77769 12.7116 9.57399 13.2813 9.3596 13.8791C9.31758 13.8181 9.29906 13.8005 9.29194 13.7795C8.29194 11.015 7.28624 8.2526 6.30049 5.4832C6.13596 5.02081 5.94294 4.54018 6.15447 4.02096H2.3418C2.65804 4.34512 2.81259 4.69103 2.95077 5.04537C4.1965 8.22875 5.44507 11.4114 6.68439 14.5976C6.99707 15.401 7.37171 16.1861 7.50063 17.0499C7.5398 17.313 7.53624 17.5621 7.33823 17.7705C7.29692 17.814 7.24493 17.8547 7.26274 17.9178C7.28909 18.009 7.37527 17.9852 7.44151 17.9852C7.90447 17.9873 8.36673 17.9866 8.82969 17.9866C9.60106 17.9866 10.3717 17.9894 11.1431 17.9831C11.2414 17.9824 11.4964 18.021 11.3105 17.8041C11.079 17.5347 11.0996 17.2512 11.1452 16.9474C11.2143 16.4829 11.3746 16.0423 11.5434 15.6073C12.4835 13.1817 13.4116 10.7512 14.3881 8.33891C14.9714 6.89772 15.4294 5.4018 16.2243 4.00342C15.027 4.00342 13.8354 4.00342 12.6438 4.00342H12.6424Z" fill="#5A6ABF"/>
<path d="M21.7042 4.021H18.029C18.4449 4.34516 18.4392 4.73457 18.4392 5.11978C18.4399 8.89184 18.4413 12.6639 18.4378 16.436C18.4378 16.9587 18.5325 17.5053 18.0254 17.9866C18.628 17.9866 19.1344 17.9866 19.6408 17.9866C20.2455 17.9866 20.8509 17.988 21.4556 17.9852C21.5603 17.9852 21.7661 17.9908 21.6045 17.8238C21.3438 17.5544 21.3324 17.2422 21.3324 16.9152C21.3317 13.0147 21.3324 9.11427 21.3302 5.2138C21.3302 4.79632 21.306 4.37743 21.7042 4.021Z" fill="#5A6ABF"/>
<path d="M34.3662 4.25321C33.5991 4.06727 32.8178 4.01675 32.0371 4.01114C29.5457 3.9929 27.0542 4.00272 24.5628 4.00202C24.5193 4.00202 24.4759 4.00693 24.3398 4.01465C24.7002 4.31004 24.7551 4.64333 24.7551 4.98363C24.7586 8.97881 24.7586 12.9733 24.7551 16.9685C24.7551 17.2604 24.7216 17.5544 24.5044 17.7852C24.4638 17.828 24.4011 17.8631 24.421 17.9255C24.4488 18.0146 24.5371 17.9845 24.6027 17.9852C24.8398 17.988 25.077 17.9866 25.3142 17.9866C26.097 17.9866 26.8804 17.9887 27.6632 17.9838C27.7622 17.9838 27.8961 18.0448 27.9559 17.9333C28.0151 17.8231 27.8676 17.7887 27.8178 17.7179C27.6611 17.4947 27.6297 17.2407 27.629 16.9832C27.6269 15.6164 27.6347 14.2496 27.6262 12.8835C27.6247 12.6681 27.6831 12.5965 27.9039 12.607C28.2473 12.6239 28.592 12.6169 28.936 12.6105C30.5122 12.5825 32.0898 12.6849 33.6632 12.4871C35.8883 12.2071 37.2237 10.9483 37.4702 8.76411C37.6718 6.98192 36.8769 4.86294 34.3669 4.25461L34.3662 4.25321ZM34.1269 9.40401C33.8341 9.92534 33.3826 10.1962 32.8028 10.3042C31.827 10.486 30.8413 10.4151 29.9673 10.4319C29.2074 10.4319 28.5549 10.4235 27.9032 10.4368C27.6824 10.4411 27.624 10.3737 27.6255 10.1583C27.6347 8.92128 27.6347 7.68357 27.6212 6.44656C27.619 6.21572 27.7052 6.17643 27.9096 6.18064C29.3078 6.208 30.7074 6.13503 32.1048 6.22975C32.2814 6.24168 32.4574 6.27045 32.634 6.28729C34.4161 6.45498 34.7067 8.37259 34.1269 9.40472V9.40401Z" fill="#5A6ABF"/>
</g>
<defs>
<clipPath id="clip0_823_292405">
<rect width="37" height="14" fill="white" transform="translate(0.5 4)"/>
</clipPath>
</defs>
</svg>
