<svg width="53" height="22" viewBox="0 0 53 22" fill="none" xmlns="http://www.w3.org/2000/svg">
<g clip-path="url(#clip0_823_292406)">
<path d="M10.3237 11.2214L5.1501 14.7865L0 11.2214V3.91978C0 3.48155 0.366522 3.12549 0.817626 3.12549H9.50607C9.95718 3.12549 10.3237 3.48155 10.3237 3.91978V11.2214Z" fill="#F44C40"/>
<path opacity="0.1" d="M9.94779 4.28728V11.057L5.15246 14.362L5.10547 14.3301V3.55005H9.1889C9.60946 3.55005 9.94779 3.87872 9.94779 4.28728Z" fill="black"/>
<path d="M4.40157 5.63843H2.32227V7.6584H4.40157V5.63843Z" fill="white"/>
<path d="M7.80587 5.63843H5.72656V7.6584H7.80587V5.63843Z" fill="white"/>
<path d="M7.80587 8.96631H5.72656V10.9863H7.80587V8.96631Z" fill="white"/>
<path d="M4.40157 8.96631H2.32227V10.9863H4.40157V8.96631Z" fill="white"/>
<path d="M14.8256 14.2251C14.5789 14.2251 14.3721 14.1429 14.2076 13.9808C14.0432 13.8188 13.9609 13.6179 13.9609 13.376C13.9609 13.1341 14.0432 12.9286 14.2076 12.7711C14.3721 12.6159 14.5765 12.5383 14.8256 12.5383C15.0746 12.5383 15.2837 12.6159 15.4576 12.7711C15.6314 12.9263 15.7184 13.1295 15.7184 13.376C15.7184 13.6225 15.6314 13.8188 15.4576 13.9808C15.2837 14.1429 15.0723 14.2251 14.8256 14.2251V14.2251Z" fill="#909090"/>
<path d="M25.9865 14.0401V11.8878H25.9466C25.5918 12.6227 25.0773 13.207 24.403 13.6476C23.7263 14.0858 22.9792 14.3049 22.1568 14.3049C21.0996 14.3049 20.2655 14.0173 19.6499 13.4421C19.0343 12.867 18.7266 12.1411 18.7266 11.2647C18.7266 9.38166 20.0094 8.24499 22.5774 7.85469L25.9865 7.35712C25.9865 5.04499 25.0914 3.88779 23.2987 3.88779C22.0816 3.88779 20.8952 4.36482 19.7368 5.32117V4.15027C20.1457 3.83301 20.7001 3.5614 21.4073 3.33772C22.1122 3.11404 22.7771 3.0022 23.3974 3.0022C24.5416 3.0022 25.4226 3.34685 26.0453 4.03615C26.6679 4.72545 26.978 5.72516 26.978 7.03758V14.0424H25.9842L25.9865 14.0401ZM22.9369 8.67181C21.7739 8.83387 20.9562 9.09635 20.484 9.45698C20.0117 9.8176 19.7768 10.4065 19.7768 11.2259C19.7768 11.8627 19.9953 12.3876 20.4346 12.7985C20.8717 13.2116 21.4825 13.417 22.2649 13.417C23.3292 13.417 24.215 13.0336 24.9222 12.2667C25.6317 11.4998 25.9865 10.5092 25.9865 9.29492V8.24271L22.9369 8.67181V8.67181Z" fill="#909090"/>
<path d="M31.6506 12.1207H31.6013V19H30.6074V3.26248H31.6013V5.48559H31.6506C32.0453 4.69358 32.6139 4.08188 33.3563 3.64822C34.0988 3.21683 34.9117 3 35.7928 3C37.2025 3 38.3044 3.47247 39.0985 4.4174C39.8926 5.36234 40.2874 6.6428 40.2874 8.26106C40.2874 10.0665 39.8316 11.525 38.9223 12.6365C38.013 13.7481 36.8171 14.3027 35.3323 14.3027C33.6735 14.3027 32.4471 13.5746 31.6506 12.1207V12.1207ZM31.6013 8.11498V9.46847C31.6013 10.5526 31.9513 11.4816 32.6538 12.2553C33.3563 13.0291 34.2797 13.4148 35.4215 13.4148C36.5634 13.4148 37.4703 12.9447 38.1799 12.002C38.8894 11.0593 39.2442 9.81997 39.2442 8.27932C39.2442 6.93495 38.9176 5.86676 38.2668 5.07475C37.616 4.28274 36.7467 3.88559 35.6635 3.88559C34.3737 3.88559 33.3728 4.30556 32.6656 5.14779C31.956 5.99001 31.6013 6.97832 31.6013 8.11498Z" fill="#909090"/>
<path d="M44.3654 12.1207H44.3161V19H43.3223V3.26248H44.3161V5.48559H44.3654C44.7602 4.69358 45.3287 4.08188 46.0712 3.64822C46.8136 3.21683 47.6265 3 48.5076 3C49.9173 3 51.0192 3.47247 51.8134 4.4174C52.6075 5.36234 53.0022 6.6428 53.0022 8.26106C53.0022 10.0665 52.5464 11.525 51.6371 12.6365C50.7279 13.7481 49.532 14.3027 48.0471 14.3027C46.3884 14.3027 45.1619 13.5746 44.3654 12.1207V12.1207ZM44.3161 8.11498V9.46847C44.3161 10.5526 44.6662 11.4816 45.3687 12.2553C46.0712 13.0291 46.9945 13.4148 48.1364 13.4148C49.2782 13.4148 50.1852 12.9447 50.8947 12.002C51.6042 11.0593 51.959 9.81997 51.959 8.27932C51.959 6.93495 51.6324 5.86676 50.9816 5.07475C50.3308 4.28274 49.4615 3.88559 48.3784 3.88559C47.0885 3.88559 46.0876 4.30556 45.3804 5.14779C44.6709 5.99001 44.3161 6.97832 44.3161 8.11498Z" fill="#909090"/>
</g>
<defs>
<clipPath id="clip0_823_292406">
<rect width="53" height="16" fill="white" transform="translate(0 3)"/>
</clipPath>
</defs>
</svg>
