<svg width="34" height="22" viewBox="0 0 34 22" fill="none" xmlns="http://www.w3.org/2000/svg">
<g clip-path="url(#clip0_823_292410)">
<path d="M3.45576 11.6086C4.0276 11.6086 4.58661 11.7782 5.06208 12.0959C5.53755 12.4136 5.90814 12.8652 6.12697 13.3935C6.34581 13.9218 6.40307 14.5032 6.2915 15.064C6.17994 15.6249 5.90457 16.1401 5.50022 16.5444C5.09586 16.9488 4.58068 17.2241 4.01982 17.3357C3.45896 17.4473 2.87762 17.39 2.3493 17.1712C1.82099 16.9523 1.36943 16.5817 1.05173 16.1063C0.734025 15.6308 0.564453 15.0718 0.564453 14.4999C0.564453 13.7331 0.869072 12.9977 1.4113 12.4555C1.95352 11.9133 2.68894 11.6086 3.45576 11.6086Z" fill="#F3811C"/>
<path d="M18.9515 7.88533L21.0504 5.81204C17.2724 2.46886 12.7599 4.77539 12.7599 4.77539C8.92943 6.33036 9.08685 11.4099 9.08685 11.4099C9.53286 16.1785 13.0747 17.4225 13.0747 17.4225C18.6367 19.3402 21.1554 15.8675 21.1554 15.8675L18.9515 13.7942C17.7972 15.5824 15.6983 15.0382 15.6983 15.0382C12.5237 14.5198 12.445 11.3063 12.445 11.3063C12.3663 8.09266 14.6489 7.05601 14.6489 7.05601C17.0888 5.86387 18.9515 7.88533 18.9515 7.88533Z" fill="#6C6D6D"/>
<path d="M31.2299 7.88533L33.3288 5.81204C29.5508 2.46886 25.0383 4.77539 25.0383 4.77539C21.2078 6.33036 21.3652 11.4099 21.3652 11.4099C21.8113 16.1785 25.3531 17.4225 25.3531 17.4225C30.9151 19.3402 33.4338 15.8675 33.4338 15.8675L31.2299 13.7942C30.0756 15.5824 27.9767 15.0382 27.9767 15.0382C24.8022 14.5198 24.7234 11.3063 24.7234 11.3063C24.6447 8.09266 26.9273 7.05601 26.9273 7.05601C29.3672 5.86387 31.2299 7.88533 31.2299 7.88533Z" fill="#6C6D6D"/>
</g>
<defs>
<clipPath id="clip0_823_292410">
<rect width="32.8696" height="14" fill="white" transform="translate(0.564453 4)"/>
</clipPath>
</defs>
</svg>
