<svg width="49" height="22" viewBox="0 0 49 22" fill="none" xmlns="http://www.w3.org/2000/svg">
<g clip-path="url(#clip0_823_292409)">
<path d="M13.3003 16.4937C8.32844 16.6952 7.33471 12.0256 7.33471 12.0256C6.61005 6.71699 11.3793 5.65466 11.3793 5.65466C17.9184 4.79895 18.761 9.83847 18.761 9.83847H15.5257C14.9694 8.58665 13.5029 8.31754 13.5029 8.31754C11.0255 8.15829 10.57 10.1237 10.57 10.1237C9.81206 12.6435 12.1886 13.5506 12.1886 13.5506C14.5642 14.1997 15.5257 12.3149 15.5257 12.3149L18.761 12.4096C17.7329 16.3828 13.3003 16.4937 13.3003 16.4937ZM31.2024 10.029C31.2024 10.029 30.4273 5.33818 25.0342 5.55992C25.0342 5.55992 22.3714 5.52767 20.3829 7.93656C20.3829 7.93656 18.7138 10.6468 19.9777 13.3561C19.9777 13.3561 21.9158 17.5711 27.4612 16.2084C27.458 16.2084 31.8402 14.8931 31.1992 10.029H31.2024ZM26.3699 13.5103C23.7478 14.1624 22.8324 12.1466 22.8324 12.1466C22.2342 10.8494 23.0232 9.55323 23.0232 9.55323C23.9601 8.4012 25.2164 8.41632 25.2164 8.41632C27.7667 8.31553 28.1333 10.5541 28.1333 10.5541C28.4388 12.8813 26.3667 13.5103 26.3667 13.5103H26.3699ZM32.1093 5.84112H35.143V6.79158C35.143 6.79158 38.2614 3.59048 41.413 7.26731C41.413 7.26731 45.0031 3.09963 48.5953 7.64729C48.5953 7.64729 49.0005 8.07565 49.0005 9.7397V16.1096H45.6634L45.5562 9.64394C45.5562 9.64394 45.3043 8.4395 44.0394 8.40825C44.0394 8.40825 42.4561 8.26513 42.1184 9.7397V16.1096H38.8831V9.64798C38.8831 9.64798 38.4951 8.30142 37.0608 8.31754C37.0608 8.31754 35.56 8.45966 35.3456 9.83847L35.4464 16.1137H32.1093V5.84112Z" fill="#0092F3"/>
<path d="M4.23461 9.31233C3.78694 9.0334 3.26063 8.88452 2.72222 8.88452C2.00024 8.88452 1.30784 9.15197 0.79732 9.62802C0.286805 10.1041 0 10.7497 0 11.423C0 11.925 0.159656 12.4158 0.458777 12.8333C0.757899 13.2507 1.18305 13.5761 1.68047 13.7682C2.17789 13.9603 2.72524 14.0106 3.2533 13.9127C3.78136 13.8147 4.26641 13.573 4.64712 13.2179C5.02783 12.8629 5.2871 12.4106 5.39214 11.9182C5.49717 11.4258 5.44327 10.9154 5.23723 10.4516C5.03119 9.98771 4.68227 9.59126 4.23461 9.31233Z" fill="#0092F3"/>
</g>
<defs>
<clipPath id="clip0_823_292409">
<rect width="49" height="11" fill="white" transform="translate(0 5.5)"/>
</clipPath>
</defs>
</svg>
